<svg preserveAspectRatio="none" width="100%" height="100%" overflow="visible" style="display: block;" viewBox="0 0 28 28" fill="none" xmlns="http://www.w3.org/2000/svg">
<path id="Icon" d="M14.1429 1L12.4323 7.84216C12.0985 9.17729 11.9316 9.84485 11.5841 10.3881C11.2766 10.8685 10.8685 11.2766 10.3881 11.5841C9.84485 11.9316 9.17729 12.0985 7.84216 12.4323L1 14.1429L7.84216 15.8534C9.17729 16.1872 9.84485 16.3541 10.3881 16.7017C10.8685 17.0091 11.2766 17.4172 11.5841 17.8977C11.9316 18.4409 12.0985 19.1084 12.4323 20.4436L14.1429 27.2857L15.8534 20.4436C16.1872 19.1084 16.3541 18.4409 16.7017 17.8977C17.0091 17.4172 17.4172 17.0091 17.8977 16.7017C18.4409 16.3541 19.1084 16.1872 20.4436 15.8534L27.2857 14.1429L20.4436 12.4323C19.1084 12.0985 18.4409 11.9316 17.8977 11.5841C17.4172 11.2766 17.0091 10.8685 16.7017 10.3881C16.3541 9.84485 16.1872 9.17729 15.8534 7.84216L14.1429 1Z" stroke="var(--stroke-0, #161616)" stroke-linecap="round" stroke-linejoin="round"/>
</svg>
