<svg width="32" height="32" viewBox="0 0 32 32" fill="none" xmlns="http://www.w3.org/2000/svg">
<path d="M20.1637 2.17578V4.11117C20.1637 4.88539 20.1637 5.27251 20.0124 5.56822C19.8794 5.82834 19.6671 6.03982 19.406 6.17236C19.1091 6.32303 18.7205 6.32303 17.9433 6.32303H14.0576C13.2803 6.32303 12.8917 6.32303 12.5949 6.17236C12.3338 6.03982 12.1215 5.82834 11.9884 5.56822C11.8372 5.27251 11.8372 4.88539 11.8372 4.11117V2.17578M10.7269 29.8241H21.2739C22.8283 29.8241 23.6055 29.8241 24.1992 29.5228C24.7215 29.2577 25.1461 28.8347 25.4122 28.3145C25.7147 27.7231 25.7147 26.9488 25.7147 25.4004V6.59952C25.7147 5.05106 25.7147 4.27684 25.4122 3.68541C25.1461 3.16517 24.7215 2.7422 24.1992 2.47713C23.6055 2.17578 22.8283 2.17578 21.2739 2.17578H10.7269C9.17252 2.17578 8.3953 2.17578 7.80159 2.47713C7.27934 2.7422 6.85474 3.16517 6.58865 3.68541C6.28613 4.27684 6.28613 5.05106 6.28613 6.59952V25.4004C6.28613 26.9488 6.28613 27.7231 6.58865 28.3145C6.85474 28.8347 7.27934 29.2577 7.80159 29.5228C8.3953 29.8241 9.17252 29.8241 10.7269 29.8241Z" stroke="#CDCDCD" stroke-linecap="round" stroke-linejoin="round"/>
</svg>
