<svg xmlns="http://www.w3.org/2000/svg" width="20" height="30" viewBox="0 0 54 80" fill="none">
  <path d="M13.3334 80.0009C20.6935 80.0009 26.6669 74.0275 26.6669 66.6675V53.334H13.3334C5.97338 53.334 0 59.3074 0 66.6675C0 74.0275 5.97338 80.0009 13.3334 80.0009Z" fill="#f6f6f5"/>
  <path d="M0 40.0014C0 32.6414 5.97338 26.668 13.3334 26.668H26.6669V53.3349H13.3334C5.97338 53.3349 0 47.3615 0 40.0014Z" fill="#f6f6f5"/>
  <path d="M0 13.3335C0 5.97339 5.97338 0 13.3334 0H26.6669V26.6669H13.3334C5.97338 26.6669 0 20.6935 0 13.3335Z" fill="#f6f6f5"/>
  <path d="M26.666 0H39.9995C47.3595 0 53.3329 5.97339 53.3329 13.3335C53.3329 20.6935 47.3595 26.6669 39.9995 26.6669H26.666V0Z" fill="#f6f6f5"/>
  <path d="M53.3329 40.0014C53.3329 47.3615 47.3595 53.3349 39.9995 53.3349C32.6394 53.3349 26.666 47.3615 26.666 40.0014C26.666 32.6414 32.6394 26.668 39.9995 26.668C47.3595 26.668 53.3329 32.6414 53.3329 40.0014Z" fill="#f6f6f5"/>
</svg>

