<svg preserveAspectRatio="none" width="100%" height="100%" overflow="visible" style="display: block;" viewBox="0 0 28 28" fill="none" xmlns="http://www.w3.org/2000/svg">
<path id="Icon" d="M11.514 25.0032C7.45563 24.0244 4.26115 20.8298 3.28241 16.7714M25.0035 16.7714C24.0248 20.8298 20.8303 24.0243 16.7719 25.0031M16.7717 3.28235C20.8302 4.26113 24.0247 7.45568 25.0035 11.5141M3.28267 11.5143C4.26143 7.45576 7.45603 4.26114 11.5145 3.28235M3.10286 16.7714H4.15429C4.89035 16.7714 5.25839 16.7714 5.53953 16.6282C5.78683 16.5022 5.98789 16.3011 6.11389 16.0538C6.25714 15.7727 6.25714 15.4046 6.25714 14.6686V13.6171C6.25714 12.8811 6.25714 12.513 6.11389 12.2319C5.98789 11.9846 5.78683 11.7835 5.53953 11.6575C5.25839 11.5143 4.89035 11.5143 4.15429 11.5143H3.10286C2.36679 11.5143 1.99875 11.5143 1.71761 11.6575C1.47031 11.7835 1.26925 11.9846 1.14325 12.2319C1 12.513 1 12.8811 1 13.6171V14.6686C1 15.4046 1 15.7727 1.14325 16.0538C1.26925 16.3011 1.47031 16.5022 1.71761 16.6282C1.99875 16.7714 2.36679 16.7714 3.10286 16.7714ZM24.1314 16.7714H25.1829C25.9189 16.7714 26.287 16.7714 26.5681 16.6282C26.8154 16.5022 27.0165 16.3011 27.1425 16.0538C27.2857 15.7727 27.2857 15.4046 27.2857 14.6686V13.6171C27.2857 12.8811 27.2857 12.513 27.1425 12.2319C27.0165 11.9846 26.8154 11.7835 26.5681 11.6575C26.287 11.5143 25.9189 11.5143 25.1829 11.5143H24.1314C23.3954 11.5143 23.0273 11.5143 22.7462 11.6575C22.4989 11.7835 22.2978 11.9846 22.1718 12.2319C22.0286 12.513 22.0286 12.8811 22.0286 13.6171V14.6686C22.0286 15.4046 22.0286 15.7727 22.1718 16.0538C22.2978 16.3011 22.4989 16.5022 22.7462 16.6282C23.0273 16.7714 23.3954 16.7714 24.1314 16.7714ZM13.6171 6.25714H14.6686C15.4046 6.25714 15.7727 6.25714 16.0538 6.11389C16.3011 5.98789 16.5022 5.78683 16.6282 5.53953C16.7714 5.25839 16.7714 4.89035 16.7714 4.15429V3.10286C16.7714 2.36679 16.7714 1.99875 16.6282 1.71761C16.5022 1.47031 16.3011 1.26925 16.0538 1.14325C15.7727 1 15.4046 1 14.6686 1H13.6171C12.8811 1 12.513 1 12.2319 1.14325C11.9846 1.26925 11.7835 1.47031 11.6575 1.71761C11.5143 1.99875 11.5143 2.36679 11.5143 3.10286V4.15429C11.5143 4.89035 11.5143 5.25839 11.6575 5.53953C11.7835 5.78683 11.9846 5.98789 12.2319 6.11389C12.513 6.25714 12.8811 6.25714 13.6171 6.25714ZM13.6171 27.2857H14.6686C15.4046 27.2857 15.7727 27.2857 16.0538 27.1425C16.3011 27.0165 16.5022 26.8154 16.6282 26.5681C16.7714 26.287 16.7714 25.9189 16.7714 25.1829V24.1314C16.7714 23.3954 16.7714 23.0273 16.6282 22.7462C16.5022 22.4989 16.3011 22.2978 16.0538 22.1718C15.7727 22.0286 15.4046 22.0286 14.6686 22.0286H13.6171C12.8811 22.0286 12.513 22.0286 12.2319 22.1718C11.9846 22.2978 11.7835 22.4989 11.6575 22.7462C11.5143 23.0273 11.5143 23.3954 11.5143 24.1314V25.1829C11.5143 25.9189 11.5143 26.287 11.6575 26.5681C11.7835 26.8154 11.9846 27.0165 12.2319 27.1425C12.513 27.2857 12.8811 27.2857 13.6171 27.2857Z" stroke="var(--stroke-0, #CDCDCD)" stroke-linecap="round" stroke-linejoin="round"/>
</svg>
