<svg preserveAspectRatio="none" width="100%" height="100%" overflow="visible" style="display: block;" viewBox="0 0 28 28" fill="none" xmlns="http://www.w3.org/2000/svg">
<path id="Icon" d="M8.30159 1H5.67302C4.03731 1 3.21945 1 2.59469 1.31833C2.04514 1.59834 1.59834 2.04514 1.31833 2.59469C1 3.21945 1 4.03731 1 5.67302V8.30159M8.30159 27.2857H5.67302C4.03731 27.2857 3.21945 27.2857 2.59469 26.9674C2.04514 26.6874 1.59834 26.2406 1.31833 25.691C1 25.0663 1 24.2484 1 22.6127V19.9841M27.2857 8.30159V5.67302C27.2857 4.03731 27.2857 3.21945 26.9674 2.59469C26.6874 2.04514 26.2406 1.59834 25.691 1.31833C25.0663 1 24.2484 1 22.6127 1H19.9841M27.2857 19.9841V22.6127C27.2857 24.2484 27.2857 25.0663 26.9674 25.691C26.6874 26.2406 26.2406 26.6874 25.691 26.9674C25.0663 27.2857 24.2484 27.2857 22.6127 27.2857H19.9841M19.9841 14.1429C19.9841 17.3689 17.3689 19.9841 14.1429 19.9841C10.9168 19.9841 8.30159 17.3689 8.30159 14.1429C8.30159 10.9168 10.9168 8.30159 14.1429 8.30159C17.3689 8.30159 19.9841 10.9168 19.9841 14.1429Z" stroke="var(--stroke-0, #CDCDCD)" stroke-linecap="round" stroke-linejoin="round"/>
</svg>
