<svg preserveAspectRatio="none" width="100%" height="100%" overflow="visible" style="display: block;" viewBox="0 0 28 27" fill="none" xmlns="http://www.w3.org/2000/svg">
<path id="Icon" d="M21.868 23.4457C19.6226 25.0771 16.9183 25.9558 14.1428 25.9558C11.3673 25.9558 8.66302 25.0771 6.41759 23.4457M19.9043 1.00013C22.3989 2.21683 24.4443 4.19204 25.7473 6.64267C27.0503 9.0933 27.5441 11.8935 27.1578 14.642M1.12792 14.6419C0.741644 11.8934 1.2354 9.09318 2.53842 6.64255C3.84145 4.19192 5.88684 2.2167 8.38145 1M21.3714 12.8129C21.3714 16.8051 18.135 20.0415 14.1428 20.0415C10.1505 20.0415 6.91419 16.8051 6.91419 12.8129C6.91419 8.82065 10.1505 5.5843 14.1428 5.5843C18.135 5.5843 21.3714 8.82065 21.3714 12.8129Z" stroke="var(--stroke-0, #161616)" stroke-linecap="round" stroke-linejoin="round"/>
</svg>
