<svg preserveAspectRatio="none" width="100%" height="100%" overflow="visible" style="display: block;" viewBox="0 0 23 28" fill="none" xmlns="http://www.w3.org/2000/svg">
<path id="Icon" d="M1 4.07237C1 2.66517 1 1.96158 1.2934 1.57373C1.54901 1.23584 1.93969 1.02676 2.36261 1.0015C2.84808 0.972518 3.4335 1.3628 4.60436 2.14337L19.8411 12.3012C20.8086 12.9462 21.2923 13.2687 21.4609 13.6752C21.6083 14.0305 21.6083 14.4299 21.4609 14.7853C21.2923 15.1918 20.8086 15.5142 19.8411 16.1592L4.60435 26.3171C3.4335 27.0976 2.84808 27.4879 2.36261 27.4589C1.93969 27.4337 1.54901 27.2246 1.2934 26.8867C1 26.4989 1 25.7953 1 24.3881V4.07237Z" stroke="var(--stroke-0, #161616)" stroke-linecap="round" stroke-linejoin="round"/>
</svg>
