<svg preserveAspectRatio="none" width="100%" height="100%" overflow="visible" style="display: block;" viewBox="0 0 28 28" fill="none" xmlns="http://www.w3.org/2000/svg">
<path id="Icon" d="M8.30159 1H8.00952C5.55596 1 4.32918 1 3.39204 1.4775C2.56771 1.89751 1.89751 2.56771 1.4775 3.39204C1 4.32918 1 5.55596 1 8.00952V8.30159M8.30159 27.2857H8.00952C5.55596 27.2857 4.32918 27.2857 3.39204 26.8082C2.56771 26.3882 1.89751 25.718 1.4775 24.8937C1 23.9565 1 22.7298 1 20.2762V19.9841M27.2857 8.30159V8.00952C27.2857 5.55596 27.2857 4.32918 26.8082 3.39204C26.3882 2.56771 25.718 1.89751 24.8937 1.4775C23.9565 1 22.7298 1 20.2762 1H19.9841M27.2857 19.9841V20.2762C27.2857 22.7298 27.2857 23.9565 26.8082 24.8937C26.3882 25.718 25.718 26.3882 24.8937 26.8082C23.9565 27.2857 22.7298 27.2857 20.2762 27.2857H19.9841" stroke="var(--stroke-0, #161616)" stroke-linecap="round" stroke-linejoin="round"/>
</svg>
