<svg preserveAspectRatio="none" width="100%" height="100%" overflow="visible" style="display: block;" viewBox="0 0 28 28" fill="none" xmlns="http://www.w3.org/2000/svg">
<path id="Icon" d="M7.57143 14.1429H7.58603M20.7143 14.1429H20.7289M14.1429 14.1429H14.1575M14.1429 20.7143H14.1575M14.1429 7.57143H14.1575M1 8.00952L1 20.2762C1 22.7297 1 23.9565 1.4775 24.8937C1.89751 25.718 2.56771 26.3882 3.39204 26.8082C4.32918 27.2857 5.55596 27.2857 8.00952 27.2857H20.2762C22.7298 27.2857 23.9565 27.2857 24.8937 26.8082C25.718 26.3882 26.3882 25.718 26.8082 24.8937C27.2857 23.9565 27.2857 22.7298 27.2857 20.2762V8.00952C27.2857 5.55596 27.2857 4.32918 26.8082 3.39204C26.3882 2.56771 25.718 1.89751 24.8937 1.4775C23.9565 1 22.7298 1 20.2762 1L8.00953 1C5.55596 1 4.32918 1 3.39204 1.47749C2.56771 1.89751 1.89751 2.56771 1.4775 3.39204C1 4.32918 1 5.55596 1 8.00952Z" stroke="var(--stroke-0, #161616)" stroke-linecap="round" stroke-linejoin="round"/>
</svg>
