<svg preserveAspectRatio="none" width="100%" height="100%" overflow="visible" style="display: block;" viewBox="0 0 28 28" fill="none" xmlns="http://www.w3.org/2000/svg">
<g id="Icon">
<path d="M1 5.20571C1 3.73358 1 2.99751 1.2865 2.43522C1.53851 1.94063 1.94063 1.53851 2.43522 1.2865C2.99751 1 3.73358 1 5.20571 1H15.1943C16.6664 1 17.4025 1 17.9648 1.2865C18.4594 1.53851 18.8615 1.94063 19.1135 2.43522C19.4 2.99751 19.4 3.73358 19.4 5.20571V15.1943C19.4 16.6664 19.4 17.4025 19.1135 17.9648C18.8615 18.4594 18.4594 18.8615 17.9648 19.1135C17.4025 19.4 16.6664 19.4 15.1943 19.4H5.20571C3.73358 19.4 2.99751 19.4 2.43522 19.1135C1.94063 18.8615 1.53851 18.4594 1.2865 17.9648C1 17.4025 1 16.6664 1 15.1943V5.20571Z" stroke="var(--stroke-0, #161616)" stroke-linecap="round" stroke-linejoin="round"/>
<path d="M8.88571 13.0914C8.88571 11.6193 8.88571 10.8832 9.17221 10.3209C9.42422 9.82634 9.82634 9.42422 10.3209 9.17221C10.8832 8.88571 11.6193 8.88571 13.0914 8.88571H23.08C24.5521 8.88571 25.2882 8.88571 25.8505 9.17221C26.3451 9.42422 26.7472 9.82634 26.9992 10.3209C27.2857 10.8832 27.2857 11.6193 27.2857 13.0914V23.08C27.2857 24.5521 27.2857 25.2882 26.9992 25.8505C26.7472 26.3451 26.3451 26.7472 25.8505 26.9992C25.2882 27.2857 24.5521 27.2857 23.08 27.2857H13.0914C11.6193 27.2857 10.8832 27.2857 10.3209 26.9992C9.82634 26.7472 9.42422 26.3451 9.17221 25.8505C8.88571 25.2882 8.88571 24.5521 8.88571 23.08V13.0914Z" stroke="var(--stroke-0, #161616)" stroke-linecap="round" stroke-linejoin="round"/>
</g>
</svg>
